<svg width="1440" height="860" viewBox="0 0 1440 860" fill="none" xmlns="http://www.w3.org/2000/svg">
<path fill-rule="evenodd" clip-rule="evenodd" d="M260.056 581.567C247.654 586.478 234.964 587.633 222.273 585.322C220.831 585.322 219.677 585.034 218.524 584.745C190.836 578.1 169.781 555.568 157.668 538.813C152.764 543.435 146.131 547.19 138.055 548.635C119.885 551.812 100.561 541.124 80.3715 517.435C43.454 473.526 38.5509 415.46 38.8393 384.839C32.2057 384.839 27.0141 383.106 23.8415 381.373C7.97853 372.995 1.34491 353.929 0.479652 339.774C-9.61498 179.445 142.958 70.2479 144.4 69.0924C206.122 25.7603 270.439 10.1607 336.198 22.8715C437.433 42.2265 515.018 122.824 550.493 167.023C541.841 171.067 533.188 175.401 524.824 180.023C489.925 138.135 419.263 67.0702 331.007 50.0263C273.035 39.0488 215.64 53.204 160.263 91.914C158.821 93.0695 19.2268 195.333 28.1678 338.04C28.7446 346.129 32.4941 354.218 36.5319 356.529C38.8393 357.684 42.3003 356.818 46.6266 354.218L71.4305 338.907L67.6811 367.795C67.6811 368.662 58.4517 448.104 101.714 499.236C119.596 520.613 129.979 521.769 133.44 520.902C140.651 519.746 145.266 509.347 145.266 509.058L156.225 480.17L170.646 507.613C170.646 508.191 193.143 550.079 224.869 557.59C237.271 560.479 249.673 557.59 262.363 548.635L263.805 546.901C262.075 558.456 260.633 570.012 260.056 581.567ZM329.276 139.29C323.22 138.424 317.163 137.557 310.818 137.557C267.555 136.402 226.311 153.734 194.585 186.378C158.821 223.355 139.786 273.909 142.381 325.33C145.554 388.306 182.183 426.727 212.179 447.526C232.079 461.681 255.441 472.081 279.957 478.725C277.361 486.525 275.054 494.325 273.035 502.125C245.924 494.903 220.254 483.059 198.335 467.748C149.303 433.66 121.038 383.395 118.154 326.774C114.982 268.42 136.613 210.933 176.992 169.334C213.621 131.78 261.21 111.847 311.395 113.002C375.135 114.736 430.8 159.223 471.755 213.822C465.41 218.733 459.065 223.644 452.719 228.843C419.551 184.645 377.154 147.957 329.276 139.29ZM964.662 201.689C1003.02 146.224 1055.8 100.292 1118.1 95.6694C1168.28 91.914 1216.74 109.536 1255.1 145.357C1297.5 184.934 1322.01 241.265 1321.72 299.619C1321.44 390.328 1258.27 453.882 1180.11 481.036C1177.8 473.237 1175.21 465.437 1172.32 457.926C1241.54 433.949 1297.21 378.484 1297.21 299.619C1297.5 247.91 1276.15 198.222 1238.66 163.268C1215.01 141.313 1187.32 127.446 1157.9 121.958C1145.5 119.647 1132.81 119.069 1120.12 119.935C1065.61 123.98 1019.17 165.001 984.563 215.266C978.217 210.644 971.584 206.022 964.662 201.689ZM1191.94 530.435C1203.76 536.79 1215.01 538.524 1226.26 535.346C1257.41 526.391 1277.88 483.347 1278.17 483.059L1291.15 455.037L1303.55 483.347C1304.71 485.947 1309.61 493.747 1315.96 494.614C1319.42 494.903 1329.51 493.458 1346.53 471.214C1387.19 418.06 1374.22 339.196 1373.93 338.329L1369.02 309.73L1394.4 323.596C1399.02 326.196 1402.19 326.774 1404.5 325.33C1408.54 323.019 1412 314.93 1412 306.552C1414.02 163.556 1269.52 68.2258 1268.08 67.3591C1210.97 31.249 1153 19.9827 1095.6 33.8489C1009.65 54.6484 943.319 126.869 910.151 170.49C901.498 166.156 892.557 162.401 883.905 158.645C917.938 112.425 990.331 30.6712 1088.97 6.69414C1154.15 -9.19431 1219.33 3.22757 1283.08 43.6709C1284.52 44.5375 1442.28 146.224 1439.97 307.13C1439.69 320.996 1433.92 340.64 1418.63 349.596C1415.17 351.618 1410.27 353.64 1403.63 353.929C1405.65 384.55 1403.35 442.904 1368.74 488.258C1349.7 513.102 1330.66 524.369 1312.49 522.346C1304.42 521.191 1297.78 517.724 1292.59 513.68C1281.34 530.724 1261.16 554.412 1234.04 562.212C1223.66 565.101 1213.28 565.679 1203.18 563.945C1200.59 563.367 1198.28 562.79 1195.97 562.212C1195.11 551.523 1193.67 541.124 1191.94 530.435ZM927.744 298.464V298.753V298.464ZM794.207 161.823C765.076 156.623 735.658 154.601 706.239 156.046C592.025 162.112 483.003 219.888 399.074 318.685C322.354 409.394 279.38 521.48 284.572 618.544C289.475 716.185 336.198 789.561 423.589 835.782C502.327 877.67 613.368 896.447 744.022 889.803C874.675 882.87 983.12 853.115 1057.24 803.139C1139.15 747.962 1178.38 670.542 1173.19 572.612C1168.28 475.548 1114.06 368.662 1028.4 286.331C959.182 219.599 878.136 176.845 794.207 161.823ZM552.224 907.136C498.289 897.603 450.7 882.003 410.322 860.337C315.144 809.783 262.075 726.585 256.595 619.988C251.403 515.991 296.685 396.683 378.019 300.775C466.852 195.911 582.796 134.668 704.797 128.313C826.798 121.958 948.799 171.067 1047.73 266.109C1138.58 353.351 1195.68 467.17 1201.16 571.167C1206.64 678.053 1162.23 766.162 1072.82 826.249C994.369 879.114 881.309 910.602 745.464 917.535C675.09 921.291 610.196 917.824 552.224 907.136Z" fill="white" fill-opacity="0.15"/>
</svg>
